<?xml version="1.0" standalone="no"?>
<!DOCTYPE svg PUBLIC "-//W3C//DTD SVG 20010904//EN"
 "http://www.w3.org/TR/2001/REC-SVG-20010904/DTD/svg10.dtd">
<svg version="1.0" xmlns="http://www.w3.org/2000/svg"
 width="500.000000pt" height="500.000000pt" viewBox="0 0 500.000000 500.000000"
 preserveAspectRatio="xMidYMid meet">
<metadata>
Created by potrace 1.11, written by Peter Selinger 2001-2013
</metadata>
<g transform="translate(0.000000,500.000000) scale(0.100000,-0.100000)"
fill="#000000" stroke="none">
<path d="M2076 4264 c-3 -8 -6 -85 -6 -170 l0 -154 -365 0 -365 0 0 -170 0
-170 -182 -2 -183 -3 -3 -167 -2 -168 -80 0 c-43 0 -82 -5 -85 -10 -28 -46 -7
-307 37 -446 79 -255 263 -457 501 -550 147 -58 223 -69 472 -69 197 1 246 4
345 23 63 13 129 27 145 32 17 5 62 19 100 31 39 12 121 45 183 75 300 141
537 376 693 689 l51 100 92 11 c165 19 273 90 344 225 l34 64 -29 23 c-61 51
-110 64 -248 70 l-130 4 -19 60 c-10 33 -39 87 -63 119 -45 60 -150 149 -175
149 -17 0 -81 -111 -104 -180 -29 -87 -25 -228 8 -308 30 -72 32 -70 -69 -96
-111 -29 -103 -39 -103 138 0 85 -3 161 -6 170 -5 14 -31 16 -185 16 l-179 0
-2 338 -3 337 -206 3 c-182 2 -207 0 -213 -14z m-240 -1409 c28 -18 48 -68 40
-101 -4 -15 -20 -39 -36 -55 -70 -70 -185 -6 -166 93 14 75 93 105 162 63z
m-219 -308 c68 -99 193 -204 313 -261 l69 -33 -46 -7 c-129 -17 -377 0 -498
35 -98 28 -241 101 -299 152 l-50 44 110 6 c124 8 195 24 293 66 36 16 71 29
76 30 6 0 20 -14 32 -32z"/>
<path d="M1737 2817 c-27 -19 -20 -78 12 -93 47 -24 102 25 61 53 -11 8 -19
22 -18 31 4 22 -31 27 -55 9z"/>
<path d="M3847 4014 c-4 -4 -7 -153 -7 -331 l0 -324 -76 -172 c-42 -95 -125
-269 -184 -387 -59 -118 -119 -245 -134 -282 -43 -109 -33 -169 34 -207 37
-21 46 -21 574 -21 584 0 570 -1 615 56 44 56 29 103 -152 474 -68 140 -151
314 -183 385 l-59 130 -3 332 c-2 271 -5 333 -17 343 -8 6 -19 9 -25 5 -6 -4
-10 -119 -10 -340 l0 -334 44 -103 c47 -109 185 -404 284 -603 104 -211 111
-249 52 -280 -25 -13 -103 -15 -547 -15 -558 0 -559 0 -577 52 -13 38 2 80
112 303 113 228 221 460 268 573 l34 83 -2 332 c-3 290 -5 332 -18 335 -9 1
-19 0 -23 -4z"/>
<path d="M3771 2626 c-26 -31 14 -71 45 -45 21 17 14 53 -12 57 -11 2 -26 -4
-33 -12z"/>
<path d="M4287 2634 c-15 -16 -7 -53 14 -59 27 -9 42 6 37 36 -3 24 -36 38
-51 23z"/>
<path d="M4010 2582 c0 -15 24 -32 45 -32 21 0 45 17 45 32 0 5 -11 1 -24 -7
-21 -14 -25 -14 -39 0 -17 17 -27 19 -27 7z"/>
<path d="M700 1912 c-47 -15 -50 -27 -50 -193 l0 -158 -57 26 c-67 31 -178 42
-249 24 -94 -24 -189 -111 -227 -209 -25 -62 -22 -176 4 -246 28 -73 102 -149
177 -184 48 -22 71 -26 143 -26 105 1 158 24 240 104 44 43 60 69 77 119 21
61 22 83 22 386 0 294 -2 323 -17 337 -23 19 -44 26 -63 20z m-169 -443 c71
-35 119 -114 119 -195 0 -47 -47 -132 -89 -159 -99 -65 -206 -53 -280 31 -62
71 -69 176 -17 254 32 48 63 70 124 86 53 13 91 9 143 -17z"/>
<path d="M2236 1894 c-14 -14 -16 -69 -16 -463 0 -480 -1 -474 52 -486 21 -5
33 -1 52 19 25 24 26 30 26 144 0 116 1 120 25 136 25 17 65 22 65 9 0 -5 23
-33 51 -63 28 -30 87 -96 132 -147 44 -50 89 -94 99 -97 30 -7 67 11 80 39 15
33 6 47 -78 142 -142 159 -184 208 -184 215 0 4 58 45 128 92 149 97 167 121
122 166 -34 34 -70 25 -171 -42 -52 -34 -131 -85 -175 -115 -45 -29 -84 -53
-88 -53 -3 0 -6 107 -6 238 0 268 -3 282 -65 282 -18 0 -41 -7 -49 -16z"/>
<path d="M1071 1609 c-44 -13 -77 -34 -125 -78 -56 -53 -86 -105 -101 -180
-33 -158 49 -314 202 -383 71 -32 201 -31 268 3 71 35 140 102 171 165 23 47
27 69 28 143 0 79 -3 94 -32 154 -36 72 -88 123 -161 159 -52 25 -192 35 -250
17z m199 -140 c70 -35 120 -114 120 -188 -1 -68 -53 -152 -118 -185 -157 -81
-348 71 -298 239 41 135 175 196 296 134z"/>
<path d="M1811 1609 c-48 -15 -110 -56 -153 -103 -54 -57 -78 -128 -78 -227 0
-70 4 -90 30 -144 34 -70 86 -122 165 -163 43 -22 63 -25 140 -25 78 0 97 3
144 27 67 34 101 68 101 99 0 57 -73 75 -135 33 -74 -51 -176 -42 -245 20 -50
46 -70 90 -70 159 0 118 88 208 205 208 48 0 125 -29 140 -53 10 -17 71 -11
88 8 40 44 8 100 -83 144 -51 25 -191 35 -249 17z"/>
<path d="M3093 1606 c-159 -52 -257 -225 -223 -392 22 -106 96 -198 197 -245
72 -34 198 -32 273 3 92 43 119 84 90 139 -13 23 -81 27 -100 5 -6 -8 -34 -22
-62 -32 -61 -20 -116 -13 -175 21 -39 23 -83 78 -83 104 0 8 70 11 248 11 296
0 288 -3 280 103 -9 109 -82 214 -187 268 -56 29 -193 36 -258 15z m165 -121
c57 -17 105 -53 127 -96 8 -15 15 -30 15 -34 0 -3 -88 -5 -195 -5 -218 0 -220
1 -164 65 41 46 89 71 160 84 3 1 28 -6 57 -14z"/>
<path d="M3618 1609 c-17 -9 -18 -35 -18 -323 0 -345 -1 -339 61 -339 59 0 63
14 69 222 5 184 6 188 32 229 34 51 64 71 129 88 41 11 58 10 106 -2 54 -14
59 -14 83 4 36 27 35 78 -3 106 -25 18 -42 21 -135 21 -98 0 -112 -2 -159 -28
-29 -15 -53 -23 -53 -17 0 5 -9 19 -20 30 -21 21 -64 26 -92 9z"/>
<path d="M3703 783 c-10 -3 -13 -60 -13 -233 l0 -229 46 -7 c71 -10 196 1 246
24 49 21 78 66 78 122 0 31 -24 90 -38 90 -4 0 -14 5 -22 10 -12 7 -11 13 10
35 19 20 25 37 24 69 -2 93 -59 126 -217 125 -56 0 -108 -3 -114 -6z m215 -89
c27 -19 28 -48 2 -74 -15 -15 -33 -20 -75 -20 l-55 0 0 55 0 55 53 0 c31 0 61
-6 75 -16z m6 -185 c43 -20 42 -90 -1 -103 -43 -12 -93 -17 -112 -11 -18 5
-21 14 -21 66 l0 59 55 0 c30 0 65 -5 79 -11z"/>
<path d="M4223 778 c-78 -25 -118 -126 -75 -193 20 -32 28 -37 135 -84 61 -27
67 -32 67 -60 0 -20 -7 -34 -19 -41 -28 -15 -106 -12 -147 5 -33 14 -35 13
-43 -8 -24 -65 -25 -63 26 -78 27 -8 80 -14 118 -13 108 1 163 39 172 117 10
84 -39 138 -158 176 -70 22 -90 83 -33 97 27 7 98 1 125 -10 12 -5 20 3 31 33
l16 41 -51 15 c-57 17 -117 18 -164 3z"/>
<path d="M2820 545 l0 -235 155 0 155 0 0 45 0 45 -105 0 -105 0 0 190 0 190
-50 0 -50 0 0 -235z"/>
<path d="M3320 733 c-51 -113 -160 -398 -160 -418 0 -3 23 -5 52 -3 l52 3 15
48 15 48 95 -3 95 -3 15 -47 15 -48 53 0 c29 0 53 4 53 10 0 15 -94 263 -138
365 l-39 90 -51 3 -51 3 -21 -48z m105 -146 c36 -97 36 -97 -41 -97 -49 0 -65
3 -62 13 31 90 64 165 70 159 4 -4 18 -37 33 -75z"/>
</g>
</svg>
